<mxfile host="65bd71144e">
    <diagram id="CkpSzz7IL6a6DoDvZSBQ" name="Page-1">
        <mxGraphModel dx="1144" dy="519" grid="1" gridSize="10" guides="1" tooltips="1" connect="1" arrows="1" fold="1" page="1" pageScale="1" pageWidth="850" pageHeight="1100" math="0" shadow="0">
            <root>
                <mxCell id="0"/>
                <mxCell id="1" parent="0"/>
                <mxCell id="2" value="" style="ellipse;html=1;shape=startState;strokeColor=#3399FF;" parent="1" vertex="1">
                    <mxGeometry x="380" width="30" height="30" as="geometry"/>
                </mxCell>
                <mxCell id="3" value="" style="edgeStyle=orthogonalEdgeStyle;html=1;verticalAlign=bottom;endArrow=open;endSize=8;strokeColor=#006EAF;fillColor=#1ba1e2;" parent="1" source="2" edge="1">
                    <mxGeometry relative="1" as="geometry">
                        <mxPoint x="395" y="70" as="targetPoint"/>
                    </mxGeometry>
                </mxCell>
                <mxCell id="4" value="Ask to LogIn or Create New Account" style="rounded=1;whiteSpace=wrap;html=1;strokeColor=#3399FF;" parent="1" vertex="1">
                    <mxGeometry x="335" y="70" width="120" height="60" as="geometry"/>
                </mxCell>
                <mxCell id="5" value="Enter Username and Password" style="rounded=1;whiteSpace=wrap;html=1;strokeColor=#3399FF;" parent="1" vertex="1">
                    <mxGeometry x="580" y="160" width="120" height="60" as="geometry"/>
                </mxCell>
                <mxCell id="6" value="Enter User Info for New Account" style="rounded=1;whiteSpace=wrap;html=1;strokeColor=#3399FF;" parent="1" vertex="1">
                    <mxGeometry x="110" y="160" width="120" height="60" as="geometry"/>
                </mxCell>
                <mxCell id="7" value="" style="rhombus;strokeColor=#3399FF;" parent="1" vertex="1">
                    <mxGeometry x="380" y="175" width="30" height="30" as="geometry"/>
                </mxCell>
                <mxCell id="9" value="" style="endArrow=open;startArrow=none;endFill=0;startFill=0;endSize=8;html=1;verticalAlign=bottom;labelBackgroundColor=none;strokeWidth=1;entryX=0;entryY=0.5;entryDx=0;entryDy=0;fillColor=#1ba1e2;strokeColor=#006EAF;" parent="1" target="5" edge="1">
                    <mxGeometry width="160" relative="1" as="geometry">
                        <mxPoint x="410" y="189.5" as="sourcePoint"/>
                        <mxPoint x="570" y="189.5" as="targetPoint"/>
                    </mxGeometry>
                </mxCell>
                <mxCell id="10" value="" style="endArrow=open;startArrow=none;endFill=0;startFill=0;endSize=8;html=1;verticalAlign=bottom;labelBackgroundColor=none;strokeWidth=1;entryX=1;entryY=0.5;entryDx=0;entryDy=0;fillColor=#1ba1e2;strokeColor=#006EAF;exitX=0;exitY=0.5;exitDx=0;exitDy=0;" parent="1" source="7" target="6" edge="1">
                    <mxGeometry width="160" relative="1" as="geometry">
                        <mxPoint x="380" y="240" as="sourcePoint"/>
                        <mxPoint x="550" y="240.5" as="targetPoint"/>
                    </mxGeometry>
                </mxCell>
                <mxCell id="11" value="" style="endArrow=open;startArrow=none;endFill=0;startFill=0;endSize=8;html=1;verticalAlign=bottom;labelBackgroundColor=none;strokeWidth=1;entryX=0.5;entryY=0;entryDx=0;entryDy=0;fillColor=#1ba1e2;strokeColor=#006EAF;exitX=0.5;exitY=1;exitDx=0;exitDy=0;" parent="1" source="4" target="7" edge="1">
                    <mxGeometry width="160" relative="1" as="geometry">
                        <mxPoint x="430" y="189.5" as="sourcePoint"/>
                        <mxPoint x="600" y="190" as="targetPoint"/>
                    </mxGeometry>
                </mxCell>
                <mxCell id="12" value="" style="rhombus;strokeColor=#3399FF;" parent="1" vertex="1">
                    <mxGeometry x="625" y="250" width="30" height="30" as="geometry"/>
                </mxCell>
                <mxCell id="13" value="" style="endArrow=open;startArrow=none;endFill=0;startFill=0;endSize=8;html=1;verticalAlign=bottom;labelBackgroundColor=none;strokeWidth=1;entryX=0.5;entryY=0;entryDx=0;entryDy=0;fillColor=#1ba1e2;strokeColor=#006EAF;exitX=0.5;exitY=1;exitDx=0;exitDy=0;" parent="1" source="5" target="12" edge="1">
                    <mxGeometry width="160" relative="1" as="geometry">
                        <mxPoint x="405" y="140" as="sourcePoint"/>
                        <mxPoint x="405" y="185" as="targetPoint"/>
                    </mxGeometry>
                </mxCell>
                <mxCell id="14" value="Reject Account" style="rounded=1;whiteSpace=wrap;html=1;strokeColor=#3399FF;" parent="1" vertex="1">
                    <mxGeometry x="190" y="310" width="90" height="50" as="geometry"/>
                </mxCell>
                <mxCell id="16" value="" style="rhombus;strokeColor=#3399FF;" parent="1" vertex="1">
                    <mxGeometry x="150" y="250" width="30" height="30" as="geometry"/>
                </mxCell>
                <mxCell id="17" value="" style="endArrow=open;startArrow=none;endFill=0;startFill=0;endSize=8;html=1;verticalAlign=bottom;labelBackgroundColor=none;strokeWidth=1;entryX=0.5;entryY=0;entryDx=0;entryDy=0;fillColor=#1ba1e2;strokeColor=#006EAF;exitX=0.458;exitY=1;exitDx=0;exitDy=0;exitPerimeter=0;" parent="1" source="6" target="16" edge="1">
                    <mxGeometry width="160" relative="1" as="geometry">
                        <mxPoint x="405" y="140" as="sourcePoint"/>
                        <mxPoint x="405" y="185" as="targetPoint"/>
                    </mxGeometry>
                </mxCell>
                <mxCell id="18" value="" style="endArrow=open;startArrow=none;endFill=0;startFill=0;endSize=8;html=1;verticalAlign=bottom;labelBackgroundColor=none;strokeWidth=1;fillColor=#1ba1e2;strokeColor=#006EAF;exitX=1;exitY=0.5;exitDx=0;exitDy=0;entryX=0.5;entryY=0;entryDx=0;entryDy=0;" parent="1" source="16" target="14" edge="1">
                    <mxGeometry width="160" relative="1" as="geometry">
                        <mxPoint x="180" y="290" as="sourcePoint"/>
                        <mxPoint x="220" y="300" as="targetPoint"/>
                        <Array as="points">
                            <mxPoint x="235" y="265"/>
                        </Array>
                    </mxGeometry>
                </mxCell>
                <mxCell id="19" value="Create Account" style="rounded=1;whiteSpace=wrap;html=1;strokeColor=#3399FF;" parent="1" vertex="1">
                    <mxGeometry x="50" y="310" width="90" height="50" as="geometry"/>
                </mxCell>
                <mxCell id="20" value="" style="endArrow=open;startArrow=none;endFill=0;startFill=0;endSize=8;html=1;verticalAlign=bottom;labelBackgroundColor=none;strokeWidth=1;fillColor=#1ba1e2;strokeColor=#006EAF;exitX=0;exitY=0.5;exitDx=0;exitDy=0;entryX=0.5;entryY=0;entryDx=0;entryDy=0;" parent="1" source="16" target="19" edge="1">
                    <mxGeometry width="160" relative="1" as="geometry">
                        <mxPoint x="190" y="275" as="sourcePoint"/>
                        <mxPoint x="245" y="320" as="targetPoint"/>
                        <Array as="points">
                            <mxPoint x="95" y="265"/>
                        </Array>
                    </mxGeometry>
                </mxCell>
                <mxCell id="21" value="" style="rhombus;strokeColor=#3399FF;" parent="1" vertex="1">
                    <mxGeometry x="150" y="390" width="30" height="30" as="geometry"/>
                </mxCell>
                <mxCell id="22" value="" style="endArrow=open;startArrow=none;endFill=0;startFill=0;endSize=8;html=1;verticalAlign=bottom;labelBackgroundColor=none;strokeWidth=1;fillColor=#1ba1e2;strokeColor=#006EAF;exitX=0.5;exitY=1;exitDx=0;exitDy=0;entryX=0;entryY=0.5;entryDx=0;entryDy=0;" parent="1" source="19" target="21" edge="1">
                    <mxGeometry width="160" relative="1" as="geometry">
                        <mxPoint x="160" y="275" as="sourcePoint"/>
                        <mxPoint x="105" y="320" as="targetPoint"/>
                        <Array as="points">
                            <mxPoint x="95" y="405"/>
                        </Array>
                    </mxGeometry>
                </mxCell>
                <mxCell id="23" value="" style="endArrow=open;startArrow=none;endFill=0;startFill=0;endSize=8;html=1;verticalAlign=bottom;labelBackgroundColor=none;strokeWidth=1;fillColor=#1ba1e2;strokeColor=#006EAF;exitX=0.5;exitY=1;exitDx=0;exitDy=0;entryX=1;entryY=0.5;entryDx=0;entryDy=0;" parent="1" source="14" target="21" edge="1">
                    <mxGeometry width="160" relative="1" as="geometry">
                        <mxPoint x="170" y="285" as="sourcePoint"/>
                        <mxPoint x="115" y="330" as="targetPoint"/>
                        <Array as="points">
                            <mxPoint x="235" y="405"/>
                        </Array>
                    </mxGeometry>
                </mxCell>
                <mxCell id="24" value="" style="endArrow=open;startArrow=none;endFill=0;startFill=0;endSize=8;html=1;verticalAlign=bottom;labelBackgroundColor=none;strokeWidth=1;fillColor=#1ba1e2;strokeColor=#006EAF;exitX=0.5;exitY=1;exitDx=0;exitDy=0;" parent="1" source="21" edge="1">
                    <mxGeometry width="160" relative="1" as="geometry">
                        <mxPoint x="165" y="440" as="sourcePoint"/>
                        <mxPoint x="330" y="100" as="targetPoint"/>
                        <Array as="points">
                            <mxPoint x="165" y="440"/>
                            <mxPoint x="40" y="440"/>
                            <mxPoint x="40" y="420"/>
                            <mxPoint x="40" y="100"/>
                        </Array>
                    </mxGeometry>
                </mxCell>
                <mxCell id="25" value="Credentials invalid" style="rounded=1;whiteSpace=wrap;html=1;strokeColor=#3399FF;" parent="1" vertex="1">
                    <mxGeometry x="665" y="310" width="90" height="50" as="geometry"/>
                </mxCell>
                <mxCell id="26" value="" style="endArrow=open;startArrow=none;endFill=0;startFill=0;endSize=8;html=1;verticalAlign=bottom;labelBackgroundColor=none;strokeWidth=1;fillColor=#1ba1e2;strokeColor=#006EAF;exitX=1;exitY=0.5;exitDx=0;exitDy=0;entryX=0.5;entryY=0;entryDx=0;entryDy=0;" parent="1" target="25" edge="1">
                    <mxGeometry width="160" relative="1" as="geometry">
                        <mxPoint x="655" y="265" as="sourcePoint"/>
                        <mxPoint x="695" y="300" as="targetPoint"/>
                        <Array as="points">
                            <mxPoint x="710" y="265"/>
                        </Array>
                    </mxGeometry>
                </mxCell>
                <mxCell id="27" value="" style="endArrow=open;startArrow=none;endFill=0;startFill=0;endSize=8;html=1;verticalAlign=bottom;labelBackgroundColor=none;strokeWidth=1;fillColor=#1ba1e2;strokeColor=#006EAF;exitX=0;exitY=0.5;exitDx=0;exitDy=0;entryX=0.5;entryY=0;entryDx=0;entryDy=0;" parent="1" edge="1">
                    <mxGeometry width="160" relative="1" as="geometry">
                        <mxPoint x="625" y="265" as="sourcePoint"/>
                        <mxPoint x="570" y="310" as="targetPoint"/>
                        <Array as="points">
                            <mxPoint x="570" y="265"/>
                        </Array>
                    </mxGeometry>
                </mxCell>
                <mxCell id="28" value="" style="endArrow=open;startArrow=none;endFill=0;startFill=0;endSize=8;html=1;verticalAlign=bottom;labelBackgroundColor=none;strokeWidth=1;fillColor=#1ba1e2;strokeColor=#006EAF;exitX=0;exitY=0.5;exitDx=0;exitDy=0;entryX=0.5;entryY=0;entryDx=0;entryDy=0;" parent="1" source="30" target="32" edge="1">
                    <mxGeometry width="160" relative="1" as="geometry">
                        <mxPoint x="570" y="360" as="sourcePoint"/>
                        <mxPoint x="395" y="370" as="targetPoint"/>
                        <Array as="points">
                            <mxPoint x="395" y="335"/>
                        </Array>
                    </mxGeometry>
                </mxCell>
                <mxCell id="29" value="" style="endArrow=open;startArrow=none;endFill=0;startFill=0;endSize=8;html=1;verticalAlign=bottom;labelBackgroundColor=none;strokeWidth=1;fillColor=#1ba1e2;strokeColor=#006EAF;exitX=1;exitY=0.5;exitDx=0;exitDy=0;entryX=1;entryY=0.5;entryDx=0;entryDy=0;" parent="1" source="25" target="4" edge="1">
                    <mxGeometry width="160" relative="1" as="geometry">
                        <mxPoint x="645" y="285" as="sourcePoint"/>
                        <mxPoint x="800" y="100" as="targetPoint"/>
                        <Array as="points">
                            <mxPoint x="800" y="335"/>
                            <mxPoint x="800" y="100"/>
                        </Array>
                    </mxGeometry>
                </mxCell>
                <mxCell id="30" value="Credentials valid" style="rounded=1;whiteSpace=wrap;html=1;strokeColor=#3399FF;" parent="1" vertex="1">
                    <mxGeometry x="530" y="310" width="90" height="50" as="geometry"/>
                </mxCell>
                <mxCell id="32" value="Customer Home Page" style="rounded=1;whiteSpace=wrap;html=1;strokeColor=#3399FF;" parent="1" vertex="1">
                    <mxGeometry x="350" y="410" width="90" height="50" as="geometry"/>
                </mxCell>
                <mxCell id="2p6-gcbsC2PxLHLpcmDk-35" value="" style="rhombus;strokeColor=#3399FF;" parent="1" vertex="1">
                    <mxGeometry x="380" y="500" width="30" height="30" as="geometry"/>
                </mxCell>
                <mxCell id="2p6-gcbsC2PxLHLpcmDk-36" value="" style="endArrow=open;startArrow=none;endFill=0;startFill=0;endSize=8;html=1;verticalAlign=bottom;labelBackgroundColor=none;strokeWidth=1;fillColor=#1ba1e2;strokeColor=#006EAF;exitX=0.5;exitY=1;exitDx=0;exitDy=0;entryX=0.5;entryY=0;entryDx=0;entryDy=0;" parent="1" source="32" target="2p6-gcbsC2PxLHLpcmDk-35" edge="1">
                    <mxGeometry width="160" relative="1" as="geometry">
                        <mxPoint x="420" y="395" as="sourcePoint"/>
                        <mxPoint x="480" y="435" as="targetPoint"/>
                        <Array as="points">
                            <mxPoint x="395" y="480"/>
                        </Array>
                    </mxGeometry>
                </mxCell>
                <mxCell id="2p6-gcbsC2PxLHLpcmDk-37" value="Search Page for Services" style="rounded=1;whiteSpace=wrap;html=1;strokeColor=#3399FF;" parent="1" vertex="1">
                    <mxGeometry x="260" y="540" width="90" height="50" as="geometry"/>
                </mxCell>
                <mxCell id="2p6-gcbsC2PxLHLpcmDk-38" value="Communicate with Service Provider&amp;nbsp;" style="rounded=1;whiteSpace=wrap;html=1;strokeColor=#3399FF;" parent="1" vertex="1">
                    <mxGeometry x="130" y="615" width="90" height="50" as="geometry"/>
                </mxCell>
                <mxCell id="2p6-gcbsC2PxLHLpcmDk-39" value="Contract signed" style="rounded=1;whiteSpace=wrap;html=1;strokeColor=#3399FF;" parent="1" vertex="1">
                    <mxGeometry x="50" y="715" width="90" height="50" as="geometry"/>
                </mxCell>
                <mxCell id="2p6-gcbsC2PxLHLpcmDk-40" value="" style="endArrow=open;startArrow=none;endFill=0;startFill=0;endSize=8;html=1;verticalAlign=bottom;labelBackgroundColor=none;strokeWidth=1;fillColor=#1ba1e2;strokeColor=#006EAF;exitX=0;exitY=0.5;exitDx=0;exitDy=0;entryX=0.5;entryY=0;entryDx=0;entryDy=0;" parent="1" source="2p6-gcbsC2PxLHLpcmDk-35" target="2p6-gcbsC2PxLHLpcmDk-37" edge="1">
                    <mxGeometry width="160" relative="1" as="geometry">
                        <mxPoint x="385" y="520" as="sourcePoint"/>
                        <mxPoint x="520" y="565" as="targetPoint"/>
                        <Array as="points">
                            <mxPoint x="305" y="515"/>
                        </Array>
                    </mxGeometry>
                </mxCell>
                <mxCell id="2p6-gcbsC2PxLHLpcmDk-41" value="" style="endArrow=open;startArrow=none;endFill=0;startFill=0;endSize=8;html=1;verticalAlign=bottom;labelBackgroundColor=none;strokeWidth=1;fillColor=#1ba1e2;strokeColor=#006EAF;entryX=0.5;entryY=0;entryDx=0;entryDy=0;exitX=0;exitY=0.5;exitDx=0;exitDy=0;" parent="1" source="2p6-gcbsC2PxLHLpcmDk-37" target="2p6-gcbsC2PxLHLpcmDk-38" edge="1">
                    <mxGeometry width="160" relative="1" as="geometry">
                        <mxPoint x="250" y="565" as="sourcePoint"/>
                        <mxPoint x="185" y="585" as="targetPoint"/>
                        <Array as="points">
                            <mxPoint x="175" y="565"/>
                        </Array>
                    </mxGeometry>
                </mxCell>
                <mxCell id="2p6-gcbsC2PxLHLpcmDk-42" value="" style="endArrow=open;startArrow=none;endFill=0;startFill=0;endSize=8;html=1;verticalAlign=bottom;labelBackgroundColor=none;strokeWidth=1;fillColor=#1ba1e2;strokeColor=#006EAF;exitX=0;exitY=0.5;exitDx=0;exitDy=0;entryX=0.5;entryY=0;entryDx=0;entryDy=0;" parent="1" target="2p6-gcbsC2PxLHLpcmDk-39" edge="1">
                    <mxGeometry width="160" relative="1" as="geometry">
                        <mxPoint x="130" y="645" as="sourcePoint"/>
                        <mxPoint x="50" y="665" as="targetPoint"/>
                        <Array as="points">
                            <mxPoint x="95" y="645"/>
                        </Array>
                    </mxGeometry>
                </mxCell>
                <mxCell id="2p6-gcbsC2PxLHLpcmDk-43" value="Customer May leave review" style="rounded=1;whiteSpace=wrap;html=1;strokeColor=#3399FF;" parent="1" vertex="1">
                    <mxGeometry x="140" y="785" width="90" height="50" as="geometry"/>
                </mxCell>
                <mxCell id="2p6-gcbsC2PxLHLpcmDk-44" value="" style="endArrow=open;startArrow=none;endFill=0;startFill=0;endSize=8;html=1;verticalAlign=bottom;labelBackgroundColor=none;strokeWidth=1;fillColor=#1ba1e2;strokeColor=#006EAF;exitX=1;exitY=0.5;exitDx=0;exitDy=0;" parent="1" source="2p6-gcbsC2PxLHLpcmDk-39" target="2p6-gcbsC2PxLHLpcmDk-43" edge="1">
                    <mxGeometry width="160" relative="1" as="geometry">
                        <mxPoint x="220" y="715" as="sourcePoint"/>
                        <mxPoint x="185" y="785" as="targetPoint"/>
                        <Array as="points">
                            <mxPoint x="185" y="740"/>
                        </Array>
                    </mxGeometry>
                </mxCell>
                <mxCell id="2p6-gcbsC2PxLHLpcmDk-45" value="Update Profile Selected" style="rounded=1;whiteSpace=wrap;html=1;strokeColor=#3399FF;" parent="1" vertex="1">
                    <mxGeometry x="450" y="540" width="90" height="50" as="geometry"/>
                </mxCell>
                <mxCell id="2p6-gcbsC2PxLHLpcmDk-46" value="" style="endArrow=open;startArrow=none;endFill=0;startFill=0;endSize=8;html=1;verticalAlign=bottom;labelBackgroundColor=none;strokeWidth=1;fillColor=#1ba1e2;strokeColor=#006EAF;exitX=1;exitY=0.5;exitDx=0;exitDy=0;entryX=0.5;entryY=0;entryDx=0;entryDy=0;" parent="1" source="2p6-gcbsC2PxLHLpcmDk-35" target="2p6-gcbsC2PxLHLpcmDk-45" edge="1">
                    <mxGeometry width="160" relative="1" as="geometry">
                        <mxPoint x="415" y="520" as="sourcePoint"/>
                        <mxPoint x="405" y="575" as="targetPoint"/>
                        <Array as="points">
                            <mxPoint x="495" y="515"/>
                        </Array>
                    </mxGeometry>
                </mxCell>
                <mxCell id="2p6-gcbsC2PxLHLpcmDk-47" value="Provide updated information" style="rounded=1;whiteSpace=wrap;html=1;strokeColor=#3399FF;" parent="1" vertex="1">
                    <mxGeometry x="450" y="635" width="90" height="50" as="geometry"/>
                </mxCell>
                <mxCell id="2p6-gcbsC2PxLHLpcmDk-48" value="" style="endArrow=open;startArrow=none;endFill=0;startFill=0;endSize=8;html=1;verticalAlign=bottom;labelBackgroundColor=none;strokeWidth=1;fillColor=#1ba1e2;strokeColor=#006EAF;exitX=0.5;exitY=1;exitDx=0;exitDy=0;entryX=0.5;entryY=0;entryDx=0;entryDy=0;" parent="1" source="2p6-gcbsC2PxLHLpcmDk-45" target="2p6-gcbsC2PxLHLpcmDk-47" edge="1">
                    <mxGeometry width="160" relative="1" as="geometry">
                        <mxPoint x="490" y="590" as="sourcePoint"/>
                        <mxPoint x="570" y="610" as="targetPoint"/>
                        <Array as="points"/>
                    </mxGeometry>
                </mxCell>
                <mxCell id="2p6-gcbsC2PxLHLpcmDk-50" value="" style="ellipse;html=1;shape=endState;fillColor=#000000;strokeColor=#000000;" parent="1" vertex="1">
                    <mxGeometry x="380" y="835" width="30" height="30" as="geometry"/>
                </mxCell>
                <mxCell id="2p6-gcbsC2PxLHLpcmDk-51" value="" style="endArrow=open;startArrow=none;endFill=0;startFill=0;endSize=8;html=1;verticalAlign=bottom;labelBackgroundColor=none;strokeWidth=1;fillColor=#1ba1e2;strokeColor=#006EAF;exitX=0.5;exitY=1;exitDx=0;exitDy=0;entryX=0.5;entryY=0;entryDx=0;entryDy=0;" parent="1" source="2p6-gcbsC2PxLHLpcmDk-35" target="2p6-gcbsC2PxLHLpcmDk-50" edge="1">
                    <mxGeometry width="160" relative="1" as="geometry">
                        <mxPoint x="400" y="535" as="sourcePoint"/>
                        <mxPoint x="505" y="645" as="targetPoint"/>
                        <Array as="points"/>
                    </mxGeometry>
                </mxCell>
                <mxCell id="2p6-gcbsC2PxLHLpcmDk-53" value="Logout Selected" style="text;html=1;align=center;verticalAlign=middle;resizable=0;points=[];autosize=1;strokeColor=none;fillColor=none;" parent="1" vertex="1">
                    <mxGeometry x="430" y="840" width="100" height="20" as="geometry"/>
                </mxCell>
                <mxCell id="37" value="" style="endArrow=open;startArrow=none;endFill=0;startFill=0;endSize=8;html=1;verticalAlign=bottom;labelBackgroundColor=none;strokeWidth=1;fillColor=#1ba1e2;strokeColor=#006EAF;exitX=1;exitY=0.5;exitDx=0;exitDy=0;entryX=1;entryY=0.5;entryDx=0;entryDy=0;" edge="1" parent="1" source="2p6-gcbsC2PxLHLpcmDk-47" target="32">
                    <mxGeometry width="160" relative="1" as="geometry">
                        <mxPoint x="670" y="590" as="sourcePoint"/>
                        <mxPoint x="670" y="890" as="targetPoint"/>
                        <Array as="points">
                            <mxPoint x="670" y="660"/>
                            <mxPoint x="670" y="435"/>
                        </Array>
                    </mxGeometry>
                </mxCell>
                <mxCell id="38" value="Report Fake Profiles to Admin" style="rounded=1;whiteSpace=wrap;html=1;strokeColor=#3399FF;" vertex="1" parent="1">
                    <mxGeometry x="260" y="660" width="90" height="50" as="geometry"/>
                </mxCell>
                <mxCell id="39" value="" style="endArrow=open;startArrow=none;endFill=0;startFill=0;endSize=8;html=1;verticalAlign=bottom;labelBackgroundColor=none;strokeWidth=1;fillColor=#1ba1e2;strokeColor=#006EAF;" edge="1" parent="1" source="2p6-gcbsC2PxLHLpcmDk-37" target="38">
                    <mxGeometry width="160" relative="1" as="geometry">
                        <mxPoint x="304.5" y="590" as="sourcePoint"/>
                        <mxPoint x="305" y="660" as="targetPoint"/>
                        <Array as="points"/>
                    </mxGeometry>
                </mxCell>
            </root>
        </mxGraphModel>
    </diagram>
</mxfile>